<svg width="660" height="749" viewBox="0 0 660 749" fill="none" xmlns="http://www.w3.org/2000/svg">
<g clip-path="url(#clip0_99_5)">
<rect width="660" height="749" rx="9" fill="#8D7C73"/>
<rect x="50" y="259" width="64" height="91" rx="18" fill="#3E3E3E"/>
<rect x="547" y="258" width="64" height="91" rx="18" fill="#3E3E3E"/>
<rect x="50" y="-25" width="64" height="91" rx="18" fill="#3E3E3E"/>
<rect x="547" y="-26" width="64" height="91" rx="18" fill="#3E3E3E"/>
<rect x="50" y="117" width="64" height="91" rx="18" fill="#3E3E3E"/>
<rect x="547" y="116" width="64" height="91" rx="18" fill="#3E3E3E"/>
<rect x="50" y="401" width="64" height="91" rx="18" fill="#3E3E3E"/>
<rect x="547" y="400" width="64" height="91" rx="18" fill="#3E3E3E"/>
<rect x="50" y="543" width="64" height="91" rx="18" fill="#3E3E3E"/>
<rect x="547" y="542" width="64" height="91" rx="18" fill="#3E3E3E"/>
<rect x="50" y="685" width="64" height="91" rx="18" fill="#3E3E3E"/>
<rect x="547" y="684" width="64" height="91" rx="18" fill="#3E3E3E"/>
<rect x="168" y="613" width="325" height="382" rx="25" fill="#82664C" fill-opacity="0.76"/>
<rect x="168" y="184" width="325" height="382" rx="25" fill="#82664C" fill-opacity="0.76"/>
<rect x="168" y="-36" width="325" height="173" rx="25" fill="#82664C" fill-opacity="0.76"/>
</g>
<defs>
<clipPath id="clip0_99_5">
<rect width="660" height="749" fill="white"/>
</clipPath>
</defs>
</svg>
